<svg viewBox="0 0 640 220" xmlns="http://www.w3.org/2000/svg" role="img"
     aria-label="Route map of Pehr Löfling, 1729-1756: Died of fever in the Guyanese rainforest, Feb 1756 — Linnaeus’s reported favourite">
  <rect width="640" height="220" fill="#fbf8f2"/>
  <text x="320.0" y="26" text-anchor="middle" font-family="Georgia, serif" font-size="15" font-weight="bold" fill="#2c2620">Pehr Löfling</text>
  <text x="320.0" y="42" text-anchor="middle" font-family="Georgia, serif" font-size="11" fill="#8a7a63">1729-1756</text>
  <path d="M 56.8 132.4 Q 56.8 132.4 110.0 114.4 Q 163.2 96.4 213.6 114.4 Q 264.0 132.4 334.0 114.4 Q 404.0 96.4 474.0 114.4 T 544.0 132.4" fill="none" stroke="#a6192e" stroke-width="1.8" stroke-dasharray="1,5" stroke-linecap="round"/>
  <circle cx="56.8" cy="132.4" r="4" fill="#1f7a6e" stroke="#fbf8f2" stroke-width="1.5"/><circle cx="163.2" cy="96.4" r="4" fill="#1f7a6e" stroke="#fbf8f2" stroke-width="1.5"/><circle cx="264.0" cy="132.4" r="4" fill="#1f7a6e" stroke="#fbf8f2" stroke-width="1.5"/><circle cx="404.0" cy="96.4" r="4" fill="#1f7a6e" stroke="#fbf8f2" stroke-width="1.5"/><circle cx="544.0" cy="132.4" r="6" fill="#7a2b1f" stroke="#fbf8f2" stroke-width="1.5"/><path d="M 539.0 123.4 L 549.0 123.4 M 544.0 123.4 L 544.0 116.4" stroke="#7a2b1f" stroke-width="1.6" stroke-linecap="round"/>
  <text x="56.8" y="120.4" text-anchor="start" font-family="Georgia, serif" font-size="11" fill="#2c2620"><tspan x="56.8" dy="0">Uppsala</tspan></text><text x="163.2" y="118.4" text-anchor="middle" font-family="Georgia, serif" font-size="11" fill="#2c2620"><tspan x="163.2" dy="0">Madrid</tspan></text><text x="264.0" y="120.4" text-anchor="middle" font-family="Georgia, serif" font-size="11" fill="#2c2620"><tspan x="264.0" dy="0">Canary Islands</tspan></text><text x="404.0" y="118.4" text-anchor="middle" font-family="Georgia, serif" font-size="11" fill="#2c2620"><tspan x="404.0" dy="0">Venezuela</tspan><tspan x="404.0" dy="11">(boundary expedition)</tspan></text><text x="544.0" y="120.4" text-anchor="middle" font-family="Georgia, serif" font-size="11" fill="#2c2620"><tspan x="544.0" dy="0">Guyana rainforest</tspan></text>
  <text x="320.0" y="206" text-anchor="middle" font-family="Georgia, serif" font-style="italic" font-size="11" fill="#7a2b1f">Died of fever in the Guyanese rainforest, Feb 1756 — Linnaeus’s reported favourite</text>
</svg>